<?xml version="1.0" encoding="utf-8"?>
<!-- Generator: Adobe Illustrator 15.0.0, SVG Export Plug-In . SVG Version: 6.00 Build 0)  -->
<!DOCTYPE svg PUBLIC "-//W3C//DTD SVG 1.1//EN" "http://www.w3.org/Graphics/SVG/1.1/DTD/svg11.dtd">
<svg version="1.1"  xmlns="http://www.w3.org/2000/svg" xmlns:xlink="http://www.w3.org/1999/xlink" x="0px" y="0px"
	 width="48px" height="48px" viewBox="0 0 48 48" enable-background="new 0 0 48 48" xml:space="preserve">
<g>
	<path fill="#FFCC80" d="M20.914,19.985c-1.604,0-2.914,1.35-2.914,3c0,1.651,1.311,3,2.914,3h20.174c1.604,0,2.912-1.349,2.912-3
		c0-1.65-1.311-3-2.912-3H20.914z"/>
	<path fill="#FFCC80" d="M18.914,31.984c-1.604,0-2.914,1.351-2.914,3c0,1.65,1.311,3,2.914,3h5.174c1.604,0,2.912-1.35,2.912-3
		c0-1.649-1.311-3-2.912-3H18.914z"/>
	<path fill="#FFCC80" d="M18.914,25.984c-1.604,0-2.914,1.351-2.914,3c0,1.65,1.311,3,2.914,3L25.088,32C26.689,32,28,30.65,28,29
		s-1.311-3-2.912-3L18.914,25.984z"/>
	<path fill="#FFCC80" d="M24,25.984L25,26v-6.015l12.563-3.965c1.627-0.311,2.703-1.881,2.383-3.51
		c-0.311-1.627-1.881-2.694-3.51-2.383l-14.311,3.839l-3.63-3.631c-0.614-0.921-1.648-1.381-2.679-1.318
		C14.933,8.958,13.982,9.25,13,9.985l-3.846,2.692c-2.768,2.766-4.873,4.689-5.108,8.393C4.019,21.287,4,21.51,4,21.741v6.879
		C4,33.721,8.056,38,13.154,38c0,0,4.83,0,10.846,0V25.984z"/>
</g>
<g>
	<path fill="#FFEBEE" d="M19.1,33c-1.172,0.012-2.112,0.914-2.1,2.021c0.013,1.104,0.975,1.989,2.143,1.978
		C20.315,36.986,20.271,32.988,19.1,33"/>
	<path fill="#FFEBEE" d="M19.1,27c-1.172,0.012-2.112,0.914-2.1,2.021c0.013,1.104,0.975,1.989,2.143,1.978
		C20.315,30.986,20.271,26.988,19.1,27"/>
</g>
<g>
	<path fill="#F2A86B" d="M18.914,37.984c-1.604,0-2.914-1.35-2.914-3c0-1.649,1.311-3,2.914-3c-1.01,0-1.901-0.535-2.425-1.344
		C14.945,31.49,14,33.105,14,34.984c0,1.133,0.386,2.166,1.012,3.006C16.957,37.994,18.914,37.984,18.914,37.984z"/>
	<path fill="#F2A86B" d="M18.914,31.984c-1.604,0-2.914-1.35-2.914-3c0-1.649,1.311-3,2.914-3l0.051-1.18
		c-0.412-0.152-0.786-0.385-1.091-0.688C15.512,24.6,14,26.591,14,28.984c0,1.133,0.386,2.166,1.012,3.006
		C16.957,31.994,18.914,31.984,18.914,31.984z"/>
	<path fill="#F2A86B" d="M22.256,14l-0.129-0.034l0.369,0.37C22.824,14.829,23,15.408,23,16v6c0,1.657-1.343,3-3,3s-3-1.343-3-3
		v-4.092L15,20v2c0,2.757,2.243,5,5,5s4-2.243,4-5c0,0,0,0.971,0-2.015C24,16,22.736,14.787,22.256,14z"/>
	<path fill="#F2A86B" d="M17,19.835v-1.927l-0.612-0.744c0,0-4.377,7.289-11.388,7.8l-1,0.013V27C11.151,27,15.304,22.313,17,19.835
		z"/>
</g>
</svg>
