<?xml version="1.0" encoding="utf-8"?>
<!-- Generator: Adobe Illustrator 15.0.0, SVG Export Plug-In . SVG Version: 6.00 Build 0)  -->
<!DOCTYPE svg PUBLIC "-//W3C//DTD SVG 1.1//EN" "http://www.w3.org/Graphics/SVG/1.1/DTD/svg11.dtd">
<svg version="1.1"  xmlns="http://www.w3.org/2000/svg" xmlns:xlink="http://www.w3.org/1999/xlink" x="0px" y="0px"
	 width="48px" height="48px" viewBox="0 0 48 48" enable-background="new 0 0 48 48" xml:space="preserve">
<g>
	<path fill="#FFCC80" d="M35,23H23.889h-0.903V8.989C22.985,7.883,21.889,6,19.889,6S17,7.989,17,8.989S17,26,17,26v7.125
		l-4.375-4.057c-1.39-1.393-3.448-1.519-4.838,0.182c-1.235,1.393-0.928,3.555,0.31,4.789l5.79,5.596C17,43.001,21.658,44,24.741,44
		h6.879c5.101,0,9.364-4.057,9.364-9.154c0,0,0.016-4.83,0.016-10.846L35,23z"/>
	<path fill="#FFCC80" d="M22.985,27.086c0,1.604,1.35,2.914,3,2.914c1.652,0,3-1.311,3-2.914V6.912c0-1.603-1.348-2.912-3-2.912
		c-1.649,0-3,1.31-3,2.912V27.086z"/>
	<path fill="#FFCC80" d="M34.984,31.086c0,1.604,1.351,2.914,3,2.914c1.652,0,3-1.311,3-2.914L41,12.912C41,11.31,39.65,10,38,10
		s-3,1.31-3,2.912L34.984,31.086z"/>
	<path fill="#FFCC80" d="M29,29.086C29,30.689,30.35,32,32,32s3-1.311,3-2.914V8.912C35,7.31,33.65,6,32,6s-3,1.31-3,2.912V29.086z"
		/>
</g>
<g>
	<g>
		<path fill="#F2A25A" d="M23.008,9C23.006,9.008,23,9.029,23,9.029l0.008,13.978c0,0.552,0.447,1,1,1s1-0.448,1-1L23.008,9z"/>
	</g>
	<path fill="#F2A25A" d="M29.052,8.414c-0.021,0.119-0.03,0.239-0.036,0.361v0.002L29,24c0,0.552,0.447,1,1,1s1-0.448,1-1
		L29.052,8.414z"/>
	<path fill="#F2A25A" d="M35.037,12.637c-0.021,0.119-0.031,0.239-0.037,0.361V13v12.586c0,0.553,0.447,1,1,1s1-0.447,1-1
		L35.037,12.637z"/>
</g>
<g>
	<path fill="#FFEBEE" d="M18,9.1c0.012-1.172,0.914-2.112,2.022-2.1c1.103,0.013,1.99,0.975,1.977,2.143
		C21.987,10.315,17.988,10.271,18,9.1"/>
	<path fill="#FFEBEE" d="M8.897,33.186c-0.926-0.83-1.003-2.252-0.174-3.181c0.832-0.925,2.256-1,3.181-0.17
		C12.83,30.667,9.823,34.018,8.897,33.186"/>
	<path fill="#FFEBEE" d="M24.001,7.1c0.012-1.172,0.914-2.112,2.022-2.1c1.103,0.013,1.99,0.975,1.977,2.143
		C27.988,8.315,23.989,8.271,24.001,7.1"/>
	<path fill="#FFEBEE" d="M30.016,9.1c0.012-1.172,0.914-2.112,2.022-2.1c1.103,0.013,1.989,0.975,1.978,2.143
		C34.003,10.315,30.004,10.271,30.016,9.1"/>
	<path fill="#FFEBEE" d="M36.001,13.1c0.013-1.172,0.914-2.112,2.022-2.1c1.103,0.013,1.99,0.975,1.977,2.143
		C39.988,14.315,35.988,14.271,36.001,13.1"/>
</g>
</svg>
